<svg xmlns="http://www.w3.org/2000/svg" version="1.1" xmlns:xlink="http://www.w3.org/1999/xlink" xmlns:svgjs="http://svgjs.dev/svgjs" width="100%" height="100%" viewBox="0 0 1000 600"><rect width="1000" height="600" x="0" y="0" fill="#0e0c1a"/><g><circle r="166.66666666666666" cx="374.42316691080725" cy="396.6454166457057" fill="#17052e" transform="matrix(0.6016657445172915,0,0,0.6016657445172915,0,61.352033251924766)"/><path d="M319.14043400696653 471.64537907013056L297.7118632271531 471.64537907013056L317.83091023708903 321.64538361143667L335.2118620918266 321.64538361143667L374.6166228035946 395.99061945584486L413.63447876517154 321.64538361143667L431.1940020430742 321.64538361143667L451.134477629845 471.64537907013056L429.70590685003157 471.64537907013056L414.49757397713626 349.2941922981682L419.8547166720896 350.1572875101329L374.85471803448144 436.07990395641247L328.9916241849086 350.1572875101329L334.3487668798619 349.2941922981682L319.14043400696653 471.64537907013056Z " fill="#f2f4f9" transform="matrix(0.6016657445172915,0,0,0.6016657445172915,0,61.352033251924766)"/><path d="M676.2783911279719 437.18025003059455L676.2783911279719 437.18025003059455Q661.6186315810269 437.18025003059455 649.8572199101252 430.4174383198262Q638.0958082392237 423.6336240882169 631.2699889659327 411.2421367920885Q624.4231671718007 398.8506494959601 624.4231671718007 381.9856252607209L624.4231671718007 381.9856252607209Q624.4231671718007 365.267618671368 631.4800141743416 352.93913893776227Q638.5578636977234 340.63166172499746 650.9283484730109 333.8478474933882Q663.2778307274575 327.0850357826198 679.1557364831747 327.0850357826198L679.1557364831747 327.0850357826198Q687.7037624654191 327.0850357826198 695.4536926557096 328.8702500540959Q703.2036228460001 330.63446180473113 708.9583135564055 333.13376178479774L708.9583135564055 333.13376178479774L707.5931497017473 345.6932692476533Q701.3974060536831 343.27797935095026 694.4245691345058 341.68178776704224Q687.4727347361693 340.08559618313416 679.6177919416743 340.08559618313416L679.6177919416743 340.08559618313416Q666.0711659992967 340.08559618313416 657.355119850325 345.7352742893351Q648.6180711805124 351.3639498746951 644.3755619706515 360.87809181562085Q640.1540552816315 370.4132362773874 640.1540552816315 382.13264290660715L640.1540552816315 382.13264290660715Q640.1540552816315 394.23009491096303 644.4595720540151 403.7232343310479Q648.7650888263987 413.21637375113266 657.6911601837794 418.69803169060646Q666.61723154116 424.1796896300802 680.3738826919466 424.1796896300802L680.3738826919466 424.1796896300802Q683.7762910681716 424.1796896300802 688.8378985908275 423.5706165256942Q693.8995061134833 422.96154342130825 698.0580052399807 421.3023442748775L698.0580052399807 421.3023442748775L698.0580052399807 394.9861856612353L681.4240087339913 394.9861856612353L681.4240087339913 381.9856252607209L712.4237294951533 381.9856252607209L712.4237294951533 429.15728706937244Q706.227985847089 432.5596954455975 697.0078791979358 434.869972738096Q687.7877725487828 437.18025003059455 676.2783911279719 437.18025003059455ZM746.5948309032905 436.5711769262086L746.5948309032905 436.5711769262086Q739.7270065883175 436.5711769262086 734.5813889822981 433.77784165436947Q729.4357713762787 430.98450638253036 726.6004310627578 426.13292406828344Q723.765090749237 421.3023442748775 723.765090749237 415.1066006268133L723.765090749237 415.1066006268133Q723.765090749237 408.8268468953855 726.5374235002351 404.33230743543385Q729.2887537303925 399.81676545464126 733.9303108362304 396.8344074952341Q738.5928704629092 393.8520495358269 744.3265586524738 392.0668352643508Q750.0812493628791 390.30262351371556 756.2349879692615 389.5045277217615Q762.4097290964849 388.7064319298075 768.0804097235266 388.6434243672848L768.0804097235266 388.6434243672848Q768.0804097235266 378.0581538634734 763.9219105970293 374.8027631331346Q759.763411470532 371.5473724027958 751.8874661551962 371.5473724027958L751.8874661551962 371.5473724027958Q747.7289670286988 371.5473724027958 743.0033998394973 372.8285261740904Q738.2778326502957 374.10967994538504 732.397126814845 378.2051715093597L732.397126814845 378.2051715093597L730.4228898558008 367.1578455470486Q734.8754242740707 363.75543717082354 741.5332233806346 361.61318004505216Q748.1910224871986 359.44992039843993 755.520902260671 359.44992039843993L755.520902260671 359.44992039843993Q764.9090290765514 359.44992039843993 770.6427172661159 362.7473161704605Q776.3974079765213 366.02370942164026 779.0437256024742 373.81564465361254Q781.690043228427 381.6075798855848 781.690043228427 394.9861856612353L781.690043228427 394.9861856612353L781.690043228427 410.10800066668014Q781.690043228427 415.4006359185858 782.1731012077676 418.8450493364927Q782.677161707949 422.2894627543996 784.4413734585843 423.9906669425121Q786.2265877300605 425.69187113062463 790.154059127308 425.69187113062463L790.154059127308 425.69187113062463L791.5192229819662 425.69187113062463L789.3979683770357 436.5711769262086L788.3478423349909 436.5711769262086Q781.7530507909497 436.5711769262086 778.1616197271566 435.29002315491397Q774.5701886633634 434.00886938361936 772.6799617876828 431.5725769660755Q770.7897349120021 429.15728706937244 769.2775534114577 425.69187113062463L769.2775534114577 425.69187113062463Q765.1190542849604 430.5224509240307 759.4483736579185 433.54681392511964Q753.7776930308768 436.5711769262086 746.5948309032905 436.5711769262086ZM749.1781409667205 425.69187113062463L749.1781409667205 425.69187113062463Q754.6177938645126 425.69187113062463 759.7214064288502 422.96154342130825Q764.8250189931879 420.2312157119918 768.0804097235266 415.69467121035836L768.0804097235266 415.69467121035836L768.0804097235266 398.01054866232425Q757.2641114904654 398.3885940374604 750.5643073422196 400.1318032672547Q743.8855057148149 401.87501249704906 740.7771326303624 405.3404284357968Q737.6897620667506 408.8268468953855 737.6897620667506 414.350509876541L737.6897620667506 414.350509876541Q737.6897620667506 420.3152257953554 740.9031477554078 423.00354846299Q744.1165334440648 425.69187113062463 749.1781409667205 425.69187113062463ZM838.3968494988451 436.5711769262086L838.3968494988451 436.5711769262086Q830.6049142668729 436.5711769262086 823.3170395350821 432.8327282165292Q816.0081622824504 429.0942795068497 813.1308169272477 421.7433972125363L813.1308169272477 421.7433972125363L816.4702177409501 419.3281073158333L813.88690767752 435.05899542566414L801.7894556731641 435.05899542566414L801.7894556731641 321.6453828848278L815.3990891780644 321.6453828848278L815.3990891780644 375.4748438000433L812.5427463437026 373.3535891951128Q816.3232000950638 367.2418556304122 823.338042055923 363.3353867540056Q830.373886537623 359.44992039843993 838.3968494988451 359.44992039843993L838.3968494988451 359.44992039843993Q848.7510922734067 359.44992039843993 856.2279896927655 364.8475682545501Q863.7258896329653 370.26621863150115 867.7583736344171 379.06627486383644Q871.81186015671 387.8873336170126 871.81186015671 398.01054866232425L871.81186015671 398.01054866232425Q871.81186015671 408.8268468953855 867.3593257384401 417.56389556519804Q862.8857887993294 426.27994171416975 855.324881296607 431.42555932018917Q847.7639737938846 436.5711769262086 838.3968494988451 436.5711769262086ZM836.7376503524143 424.4737249218527L836.7376503524143 424.4737249218527Q843.227429292251 424.4737249218527 847.9950015231344 420.88229385805954Q852.7625737540177 417.2908627942664 855.324881296607 411.28414183377026Q857.9081913600371 405.27742087327414 857.9081913600371 398.01054866232425L857.9081913600371 398.01054866232425Q857.9081913600371 390.44964115960187 855.324881296607 384.4849252407875Q852.7625737540177 378.49920680113223 847.9950015231344 375.0337908623845Q843.227429292251 371.5473724027958 836.7376503524143 371.5473724027958L836.7376503524143 371.5473724027958Q830.8989495586454 371.5473724027958 825.8793470776714 374.46672279968027Q820.8597445966973 377.36507067572387 817.7513715122448 383.22477399033374Q814.6429984277921 389.0844773049436 814.6429984277921 398.01054866232425L814.6429984277921 398.01054866232425Q814.6429984277921 407.31466539484103 817.7513715122448 413.1323636677691Q820.8597445966973 418.95006194069714 825.8793470776714 421.7223946916954Q830.8989495586454 424.4737249218527 836.7376503524143 424.4737249218527ZM904.9328355228024 471.64538673050424L889.8110205173575 471.64538673050424L906.8860699610058 431.7405971328026L876.054369366571 360.9621018989844L891.1761843720158 360.9621018989844L914.2999598178418 416.0097090229718L935.1764655336921 360.9621018989844L950.298280539137 360.9621018989844L904.9328355228024 471.64538673050424ZM969.200549295943 360.9621018989844L959.5183871882901 360.9621018989844L956.7880594789737 329.20629038755027L971.9098744844185 329.20629038755027L969.200549295943 360.9621018989844ZM1005.7869406007832 436.5711769262086L1005.7869406007832 436.5711769262086Q995.957760847244 436.5711769262086 989.488984428248 434.2188945920283Q983.0412105300932 431.8876147786889 980.3948929041404 430.0603954655309L980.3948929041404 430.0603954655309L982.0540920505711 416.9128174191303Q984.4693819472742 419.0340720240608 990.6021180328156 421.7433972125363Q996.7138515975163 424.4737249218527 1005.1778674963972 424.4737249218527L1005.1778674963972 424.4737249218527Q1012.3607296239835 424.4737249218527 1016.1831884170265 422.0584350251497Q1020.0056472100695 419.64314512844675 1020.0056472100695 415.25361827269955L1020.0056472100695 415.25361827269955Q1020.0056472100695 411.38915443797475 1017.5483522716846 409.01586958295354Q1015.0910573332998 406.6215822070914 1011.646643915393 405.2354158315923Q1008.2022304974861 403.82824693525237 1005.1778674963972 403.0091486224574L1005.1778674963972 403.0091486224574Q1000.1162599737413 401.6439847677992 994.7186121176311 399.5647352045505Q989.29996174068 397.48548564130186 985.6035180726825 393.3269865148045Q981.9070744046849 389.1684873883072 981.9070744046849 381.6705874481075L981.9070744046849 381.6705874481075Q981.9070744046849 375.9999068210657 984.6163995931603 370.896294256728Q987.3467273024768 365.7926816923904 993.4584608671775 362.6213010454151Q999.5911969527189 359.44992039843993 1009.7144119980305 359.44992039843993L1009.7144119980305 359.44992039843993Q1017.1283018548667 359.44992039843993 1021.7908614815456 361.0041069406662Q1026.4324185873834 362.55829348289245 1029.8348269636085 364.2805001918459L1029.8348269636085 364.2805001918459L1028.1756278171779 376.69299000881523Q1024.9202370868388 373.9626622994988 1020.6147203144554 372.0724354238182Q1016.3092035420718 370.18220854813757 1010.029449810644 370.18220854813757L1010.029449810644 370.18220854813757Q1003.6656859958526 370.18220854813757 999.6752070360825 372.5764959239997Q995.6637255554714 374.9497807790209 995.6637255554714 380.158405947563L995.6637255554714 380.158405947563Q995.6637255554714 385.388033636946 999.9272372861732 387.5722958043991Q1004.2117515377159 389.77756049269317 1012.9067951658468 392.42387811864603L1012.9067951658468 392.42387811864603Q1015.6161203543222 393.17996886891825 1019.2075514181155 394.6081402860992Q1022.7989824819086 396.0363117032801 1026.2013908581337 398.472604120824Q1029.6037992343586 400.88789401752695 1031.8300664434937 404.77336037309266Q1034.0773361734696 408.6798292494992 1034.0773361734696 414.49752752242733L1034.0773361734696 414.49752752242733Q1034.0773361734696 419.41211739919686 1031.725053839289 424.5157299635345Q1029.372771505109 429.6193425278721 1023.2610379404083 433.0847584666199Q1017.1283018548667 436.5711769262086 1005.7869406007832 436.5711769262086ZM1094.5645961952487 435.05899542566414L1079.442781189804 435.05899542566414L1093.6404852782493 329.20629038755027L1105.9059574493326 329.20629038755027L1133.7132950426783 381.6705874481075L1161.2475998650925 329.20629038755027L1173.6390871612207 329.20629038755027L1187.7107761246207 435.05899542566414L1172.588961119176 435.05899542566414L1161.8566729694785 348.7176322487423L1165.6371267208397 349.32670535312826L1133.8813152094053 409.96098302079383L1101.5164305935855 349.32670535312826L1105.2968843449466 348.7176322487423L1094.5645961952487 435.05899542566414ZM1234.735420287386 436.5711769262086L1234.735420287386 436.5711769262086Q1223.10002374153 436.5711769262086 1214.8880380927399 431.38355427850735Q1206.6760524439496 426.2169341516471 1202.3285306298842 417.47988548183446Q1197.9810088158188 408.7428368120219 1197.9810088158188 398.01054866232425L1197.9810088158188 398.01054866232425Q1197.9810088158188 387.2782605126266 1202.3285306298842 378.541211842814Q1206.6760524439496 369.8041631730014 1214.8880380927399 364.63754304614116Q1223.10002374153 359.44992039843993 1234.735420287386 359.44992039843993L1234.735420287386 359.44992039843993Q1246.3078092707194 359.44992039843993 1254.5407974403504 364.63754304614116Q1262.7947881308226 369.8041631730014 1267.1423099448878 378.541211842814Q1271.4898317589534 387.2782605126266 1271.4898317589534 398.01054866232425L1271.4898317589534 398.01054866232425Q1271.4898317589534 408.7428368120219 1267.1423099448878 417.47988548183446Q1262.7947881308226 426.2169341516471 1254.5407974403504 431.38355427850735Q1246.3078092707194 436.5711769262086 1234.735420287386 436.5711769262086ZM1234.735420287386 424.4737249218527L1234.735420287386 424.4737249218527Q1245.7827462496973 424.4737249218527 1251.6634520851478 417.47988548183446Q1257.5651604414395 410.4860460418162 1257.5651604414395 398.01054866232425L1257.5651604414395 398.01054866232425Q1257.5651604414395 385.5350512828323 1251.6634520851478 378.541211842814Q1245.7827462496973 371.5473724027958 1234.735420287386 371.5473724027958L1234.735420287386 371.5473724027958Q1223.7721044084387 371.5473724027958 1217.828391010465 378.541211842814Q1211.9056801333327 385.5350512828323 1211.9056801333327 398.01054866232425L1211.9056801333327 398.01054866232425Q1211.9056801333327 410.4860460418162 1217.828391010465 417.47988548183446Q1223.7721044084387 424.4737249218527 1234.735420287386 424.4737249218527ZM1319.879639776377 435.05899542566414L1304.589804604205 435.05899542566414L1276.3204115523592 360.9621018989844L1291.442226557804 360.9621018989844L1312.1507121069274 420.08419806610556L1332.733182531005 360.9621018989844L1348.0020151823362 360.9621018989844L1319.879639776377 435.05899542566414ZM1372.1969191910478 435.05899542566414L1358.5872856861477 435.05899542566414L1358.5872856861477 360.9621018989844L1372.1969191910478 360.9621018989844L1372.1969191910478 435.05899542566414ZM1372.1969191910478 344.32810539299504L1358.5872856861477 344.32810539299504L1358.5872856861477 329.20629038755027L1372.1969191910478 329.20629038755027L1372.1969191910478 344.32810539299504ZM1426.1733977521496 436.5711769262086L1426.1733977521496 436.5711769262086Q1413.0888272682716 436.5711769262086 1404.1837584317316 431.1945315909393Q1395.2576870743512 425.83888877651094 1390.679137531036 416.95482246081207Q1386.100587987721 408.07075614511325 1386.100587987721 397.4014755579383L1386.100587987721 397.4014755579383Q1386.100587987721 387.0472327833767 1390.3851022392635 378.43619923860956Q1394.6486139699653 369.8041631730014 1402.776589535392 364.63754304614116Q1410.9045651008184 359.44992039843993 1422.3929440007885 359.44992039843993L1422.3929440007885 359.44992039843993Q1431.6130506499414 359.44992039843993 1438.8379178192097 363.12536154559666Q1446.0627849884775 366.7798001719125 1450.1792790732932 373.7736396119307Q1454.295773158109 380.76747905194895 1454.295773158109 390.74367645137437L1454.295773158109 390.74367645137437Q1454.295773158109 392.33986803528245 1454.1907605539043 394.18808986928127Q1454.0857479496997 396.0363117032801 1453.7077025745637 398.01054866232425L1453.7077025745637 398.01054866232425L1400.0252593052344 398.01054866232425Q1400.9913752639156 408.3017838743631 1404.939849182004 414.0354720639276Q1408.8673205792518 419.790162774333 1414.8320364980657 422.12144258767245Q1420.8177549377212 424.4737249218527 1427.8325968985803 424.4737249218527L1427.8325968985803 424.4737249218527Q1432.9782145046 424.4737249218527 1438.5858875691185 423.4235988798079Q1444.1725581127969 422.3524703169223 1449.1711580729304 420.08419806610556L1449.1711580729304 420.08419806610556L1450.9773748652472 430.8164862158032Q1446.6718580928634 432.7067130914838 1440.4761144447996 434.6389450088462Q1434.259368275894 436.5711769262086 1426.1733977521496 436.5711769262086ZM1401.2224029931656 388.6434243672848L1401.2224029931656 388.6434243672848L1440.2450867155496 388.6434243672848Q1440.2450867155496 383.4137966779018 1438.2708497565052 379.5703353640179Q1436.317615318302 375.7058715292931 1432.3061338376913 373.62662196604447Q1428.2946523570802 371.5473724027958 1422.0989087090159 371.5473724027958L1422.0989087090159 371.5473724027958Q1413.025819705749 371.5473724027958 1408.1532348706612 376.04191186274744Q1403.2596475147323 380.5364513226991 1401.2224029931656 388.6434243672848Z " fill="#f2f4f9" transform="matrix(0.6016657445172915,0,0,0.6016657445172915,0,61.352033251924766)"/></g></svg>